Simulation
nRows=48
nColumns=15
endheader
time  TH_x TH_y TH_z SC_y  SC_z  SC_x  AC_y  AC_z  AC_x  GH_y  GH_z  GH_yy  EL_x  PS_y
0.75  0.000000  0.000000  0.000000  -33.38757237775693  3.9779397467132163  20.449049314964597  59.99673629095496  -0.7431284650934502  -11.934702310228628  21.95929068306664  29.057587270119143  -18.615298559491016  19.952114455596753  0.000000
0.765  0.000000  0.000000  0.000000  -33.5180860134122  4.18330980027051  20.662265770572905  60.05998562383834  -0.37619853887004634  -11.810861589224826  22.008905331153237  29.562939475280093  -18.939202488594816  19.747126479721103  0.000000
0.78  0.000000  0.000000  0.000000  -33.64687808969207  4.390205896385071  20.883726598721353  60.11348748777016  -0.013628447350878491  -11.69059508097065  22.063654758890035  30.052779232460423  -19.260821542388523  19.54075108765039  0.000000
0.7949999999999999  0.000000  0.000000  0.000000  -33.77504401710949  4.598765615795453  21.113985436460837  60.15815636308707  0.34224685230566154  -11.572758397444158  22.123350453856315  30.52720645655134  -19.58010545197625  19.333545606538337  0.000000
0.8099999999999999  0.000000  0.000000  0.000000  -33.9026784830641  4.809025023584709  21.352781489025418  60.19507239650811  0.6890055870268127  -11.455936640553674  22.187612938949304  30.986363694161177  -19.89686575504389  19.125992083616516  0.000000
0.825  0.000000  0.000000  0.000000  -34.03101563045914  5.021167462225273  21.600586512206007  60.22574865291797  1.024221602797068  -11.338594263089671  22.25568632664635  31.430370897604238  -20.21053437437491  18.91881197062838  0.000000
0.84  0.000000  0.000000  0.000000  -34.16030972863997  5.2352624933763305  21.857033107684195  60.25189054610445  1.3454171194935194  -11.219024848598258  22.32649480634778  31.85937179685012  -20.520352805173125  18.71270890483331  0.000000
0.855  0.000000  0.000000  0.000000  -34.29206910774439  5.451655993561653  22.122428935436467  60.27548774591272  1.650109900069965  -11.095178381399382  22.398803878422818  32.27347266569955  -20.825454298906806  18.507996465090567  0.000000
0.87  0.000000  0.000000  0.000000  -34.426715681809696  5.670517135325389  22.396016851042695  60.29838586292242  1.9359077765248485  -10.96506594693858  22.471321734026333  32.67302521402101  -21.124982187860187  18.305111469493987  0.000000
0.885  0.000000  0.000000  0.000000  -34.56579224547403  5.892075530752776  22.677668244563403  60.32267127950048  2.2008132280072217  -10.82681386242528  22.542635651505247  33.058357748625504  -21.41784009021721  18.104688452443092  0.000000
0.8999999999999999  0.000000  0.000000  0.000000  -34.70969161761155  6.116217059124823  22.96625047543409  60.350210795866516  2.4432584805138498  -10.678757636968962  22.611576381239612  33.42988413970662  -21.703152001294235  17.907300327918332  0.000000
0.9149999999999999  0.000000  0.000000  0.000000  -34.859738414732064  6.342824605139167  23.261203333136088  60.382758908569144  2.662432759380905  -10.519629822048053  22.677389631051856  33.787927539974426  -21.9802592709648  17.713586540328503  0.000000
0.9299999999999999  0.000000  0.000000  0.000000  -35.01583575302803  6.571361869040471  23.560895040030935  60.42144363896335  2.8583076149917144  -10.348809184291746  22.74010033161955  34.13281517672748  -22.249133620025045  17.52421150380523  0.000000
0.945  0.000000  0.000000  0.000000  -35.17858582739886  6.801315126708916  23.864330815697667  60.46683966195585  3.0317909668819145  -10.16629444613806  22.800422793161147  34.46466197099734  -22.51009448665252  17.33996812369313  0.000000
0.96  0.000000  0.000000  0.000000  -35.346984639537965  7.031785181284183  24.169477070087893  60.51874421181037  3.1845595468844823  -9.972958198067746  22.85992468877782  34.78360545088268  -22.76420524167029  17.161672848469546  0.000000
0.975  0.000000  0.000000  0.000000  -35.5207366122626  7.261969044141398  24.475157164299603  60.57632875662672  3.3188477060249335  -9.770104539822878  22.920365272293143  35.08965299247092  -23.012458697442927  16.990301264154255  0.000000
0.99  0.000000  0.000000  0.000000  -35.69768281070523  7.491103707541746  24.779287265029296  60.638101125111476  3.4370448672981797  -9.559651942309586  22.983472169554513  35.38289180354232  -23.25593172800183  16.826738048260783  0.000000
1.005  0.000000  0.000000  0.000000  -35.87578149369215  7.71812785781776  25.080721535231906  60.70253095021473  3.5419291511534254  -9.344042672992817  23.04956469598902  35.66341882042901  -23.49467427892105  16.67145497234769  0.000000
1.02  0.000000  0.000000  0.000000  -36.05212653171755  7.94144711146415  25.377439505979513  60.76789407213496  3.636365536741853  -9.125631443070434  23.11809663386487  35.93160417182522  -23.727989015067426  16.52482640993505  0.000000
1.035  0.000000  0.000000  0.000000  -36.22690817613832  8.161111779190716  25.66862000754696  60.83312567647706  3.722425840568756  -8.905771042502355  23.188498833925745  36.187712951552385  -23.955299025264882  16.387816506064944  0.000000
1.05  0.000000  0.000000  0.000000  -36.39997583044924  8.376745643088626  25.95289677163392  60.89760591913203  3.801884968191495  -8.685295712462445  23.258875929002823  36.43203883556271  -24.174767483222574  16.26118091428389  0.000000
1.065  0.000000  0.000000  0.000000  -36.57188815611449  8.5875108822202  26.23010041326735  60.9611155956982  3.8765039077604877  -8.465375826973727  23.326060560725235  36.66500231718008  -24.38368927179253  16.145311394606193  0.000000
1.08  0.000000  0.000000  0.000000  -36.74201493988512  8.79245550794584  26.498950961840567  61.02342032720605  3.94747869239763  -8.247119357811647  23.38674921594387  36.88772166274537  -24.57972464531936  16.039972247486194  0.000000
1.095  0.000000  0.000000  0.000000  -36.910249868880506  8.990387895374358  26.759462820684288  61.08420230702917  4.016104804159999  -8.032109929498558  23.436203205533104  37.100945566088036  -24.758973489459166  15.945597581305542  0.000000
1.1099999999999999  0.000000  0.000000  0.000000  -37.07511004370379  9.179994659748514  27.01061424666406  61.14329097621426  4.083694900488192  -7.822095160083084  23.46979452909525  37.30538384128751  -24.917812958516215  15.86295639654859  0.000000
1.125  0.000000  0.000000  0.000000  -37.23861816075555  9.361759377783352  27.252736491561564  61.2014536998454  4.150625102531782  -7.616143644070464  23.48614622964328  37.50156377720855  -25.055504109521095  15.791243060688211  0.000000
1.14  0.000000  0.000000  0.000000  -37.401345669723455  9.53552575437706  27.48489462055987  61.25914035396509  4.21739614421122  -7.4138145750221085  23.48477398499352  37.69037872583701  -25.171812426651012  15.73041089768944  0.000000
1.155  0.000000  0.000000  0.000000  -37.563300985016355  9.699912250228191  27.707074811453477  61.31684387305388  4.285526052458058  -7.216511630799181  23.464050794417602  37.872320546908625  -25.265201767205276  15.681269669875682  0.000000
1.17  0.000000  0.000000  0.000000  -37.72360184711009  9.854122711638748  27.917835412029106  61.37455501120496  4.355876350586088  -7.024787379005395  23.423915141880915  38.04819423097727  -25.33546104947741  15.643857843157894  0.000000
1.185  0.000000  0.000000  0.000000  -37.88305738297166  9.998042153087454  28.116847346364647  61.43261407815771  4.429043888943687  -6.838864712145283  23.36588368318185  38.218435246649776  -25.38375900215089  15.617942176439936  0.000000
1.2  0.000000  0.000000  0.000000  -38.04032528969385  10.130313552606095  28.30244175625702  61.49088718800354  4.505733191809589  -6.660073115553312  23.291499262858764  38.3837150066965  -25.411249940608243  15.603559074556324  0.000000
1.2149999999999999  0.000000  0.000000  0.000000  -38.19521615452048  10.24999417994434  28.474198945631734  61.54943334232481  4.58654686685251  -6.489905008130352  23.202705184139123  38.543744940766  -25.41951151888628  15.600779369589675  0.000000
1.23  0.000000  0.000000  0.000000  -38.346399000088915  10.355954547925943  28.630308690936108  61.60787136687314  4.671538007867173  -6.329751195106395  23.102407113356843  38.69829799269256  -25.410599699001402  15.60936942036252  0.000000
1.2449999999999999  0.000000  0.000000  0.000000  -38.49339714473979  10.446545456882621  28.770140707419827  61.66666411249156  4.761387197893795  -6.181811425943186  22.994309571984605  38.845921713944335  -25.38757326569498  15.62890634829145  0.000000
1.26  0.000000  0.000000  0.000000  -38.63453183874306  10.519577414568959  28.891451705392537  61.725871044633294  4.85644694404296  -6.04829347850873  22.883400188927325  38.98502960085695  -25.354252745378265  15.658888940319384  0.000000
1.275  0.000000  0.000000  0.000000  -38.770303827578466  10.573936947298446  28.99345013325981  61.78601807505294  4.9566490459153245  -5.930930281879396  22.776484896526714  39.11214180757981  -25.31607393299397  15.698840241186856  0.000000
1.29  0.000000  0.000000  0.000000  -38.89772231069772  10.607115505664646  29.073646401757962  61.846561155206935  5.06150249020674  -5.832719254939973  22.679443240402065  39.223446582485245  -25.277615667956987  15.748075735305155  0.000000
1.305  0.000000  0.000000  0.000000  -39.012787725203445  10.615087084955801  29.13071644059873  61.90813367351902  5.17166408918753  -5.758900698258492  22.59717054988003  39.31286908160608  -25.24320867391118  15.804822657669886  0.000000
1.3199999999999998  0.000000  0.000000  0.000000  -39.11070145967983  10.594132247154409  29.161611182768645  61.969756128632035  5.286529553097868  -5.713684165164132  22.53577641565362  39.373360442391714  -25.217991192056342  15.867481928995005  0.000000
1.335  0.000000  0.000000  0.000000  -39.19041750403747  10.539171705937807  29.165364495638155  62.03345486667545  5.406438528062816  -5.702897301613658  22.503748765161692  39.395047406390276  -25.208670928876376  15.934223199532022  0.000000
1.3499999999999999  0.000000  0.000000  0.000000  -39.24944947220208  10.444486045503368  29.139920405111702  62.099515148565814  5.530382099902054  -5.732249132341911  22.510754091261706  39.36654442777284  -25.22334858440479  16.00321840059047  0.000000
1.365  0.000000  0.000000  0.000000  -39.28570321477304  10.302337267056084  29.08627865167503  62.170336364829595  5.657700323272223  -5.810783074613236  22.566495248707124  39.27271696164003  -25.26795335303479  16.072634553650225  0.000000
1.38  0.000000  0.000000  0.000000  -39.292984920342974  10.104059953108504  29.003563221856883  62.24723373953615  5.785675926932245  -5.9518134110764995  22.679241391198907  39.09699638272698  -25.348626085176175  16.14503850361053  0.000000
1.395  0.000000  0.000000  0.000000  -39.26678655984564  9.842502266274392  28.8924199558679  62.33284623200713  5.90959742004241  -6.166264491752945  22.860638900987784  38.81796689894495  -25.475433999960707  16.21114985437064  0.000000
1.41  0.000000  0.000000  0.000000  -39.19859097871096  9.513057712923498  28.747717293337285  62.41737095676309  6.020576264985803  -6.462956193586485  23.12779676799915  38.41448156433181  -25.664657417830565  16.2674768767661  0.000000
1.425  0.000000  0.000000  0.000000  -39.08702315797646  9.111508670084461  28.56373754786082  62.501125273803986  6.109419817135085  -6.856949893272357  23.504705368604117  37.86759184414288  -25.93251717266485  16.309245226435543  0.000000
1.44  0.000000  0.000000  0.000000  -38.94353630448763  8.638817206600063  28.331036845376353  62.57653740734703  6.154182896060395  -7.347457503608668  24.025483230629177  37.165304255444  -26.315412452847582  16.338930819208162  0.000000
1.4549999999999998  0.000000  0.000000  0.000000  -38.80117217798335  8.099792363104974  28.036741242675866  62.64645857564295  6.118470349024504  -7.915475308761395  24.710379126681094  36.312589371077244  -26.81691797613386  16.356181299473594  0.000000
